<svg xmlns="http://www.w3.org/2000/svg" viewBox="0 0 226.77 226.77"><path d="M103.45 72.132l-17.057 4.817a1.972 1.972 0 0 1-2.386-1.326l-4.773-16.969a1.973 1.973 0 0 1 1.326-2.387l17.058-4.817a1.972 1.972 0 0 1 2.386 1.326l4.773 16.969c.309 1.017-.31 2.077-1.327 2.387z" fill="#b7895b"/><path d="M82.548 65.812l-1.193-4.286c-.619-2.165.663-4.375 2.784-4.994l10.606-3.005c2.165-.619 4.375.663 4.994 2.784l1.193 4.286-18.384 5.215z" fill="#c49a6c"/><path d="M92.226 63.073s5.612-7.38 1.591-9.28l2.607-1.37 3.359 2.298 1.723 6.187-9.28 2.165z" fill="#b7895b"/><path d="M81.533 69.311l22.328-6.306 13.044 46.188-22.328 6.306-13.044-46.188z" fill="#99d5e8"/><ellipse transform="rotate(-15.771 113.382 131.62)" cx="113.385" cy="131.623" rx="43.751" ry="43.751" fill="#99d5e8"/><ellipse transform="rotate(-15.771 113.382 131.62)" cx="113.385" cy="131.623" rx="41.497" ry="41.497" fill="#bce3f4"/><path d="M104.113 67.359l-20.77 5.877c-1.679.486-3.403-.53-3.889-2.165-.486-1.679.53-3.403 2.165-3.889l20.77-5.877c1.679-.486 3.403.53 3.889 2.165.487 1.635-.485 3.403-2.165 3.889z" fill="#bce3f4"/><path d="M103.76 101.872c3.977 4.11-6.408 4.198-13.08 10.65s-7.159 16.837-11.136 12.683c-3.977-4.11-1.768-12.683 4.905-19.135 6.716-6.452 15.334-8.352 19.311-4.198z" opacity=".35" fill="#fff"/><path d="M84.757 74.172l19.054-5.38 6.378 22.583-19.054 5.38-6.378-22.583z" fill="#bce3f4"/><path d="M103.76 68.773s.928 21.742-5.612 23.996c0 0 21.919-3.756 31.154.53 0 0-11.313-4.596-15.644-3.756-4.374.795-9.898-20.77-9.898-20.77z" fill="#99d5e8"/><g><linearGradient id="a" gradientUnits="userSpaceOnUse" x1="75.414" y1="134.814" x2="151.333" y2="134.814" gradientTransform="translate(0 -.05)"><stop offset="0" stop-color="#faeb48"/><stop offset=".04" stop-color="#fee72f"/><stop offset=".117" stop-color="#ffd51d"/><stop offset=".196" stop-color="#fdca12"/><stop offset=".281" stop-color="#fdc710"/><stop offset=".668" stop-color="#f39040"/><stop offset=".888" stop-color="#ed683c"/><stop offset="1" stop-color="#e83e3b"/></linearGradient><path d="M135.842 100.988c7.778 2.43 11.666 11.799 14.053 20.284 5.701 20.195-6.054 41.142-26.205 46.842s-41.142-6.054-46.842-26.205a37.908 37.908 0 0 1-.309-19.488s9.147 14.583 25.056 7.336c15.908-7.204 12.903-35.442 34.247-28.769z" fill="url(#a)"/></g></svg>