<?xml version="1.0" encoding="iso-8859-1"?>
<!-- Generator: Adobe Illustrator 21.1.0, SVG Export Plug-In . SVG Version: 6.00 Build 0)  -->
<svg version="1.1" id="Layer_1" xmlns="http://www.w3.org/2000/svg" xmlns:xlink="http://www.w3.org/1999/xlink" x="0px" y="0px"
	 viewBox="0 0 226.77 226.77" style="enable-background:new 0 0 226.77 226.77;" xml:space="preserve">
<path style="fill:#B7895B;" d="M76.637,66.865L59.58,71.682c-1.022,0.269-2.075-0.316-2.386-1.326l-4.773-16.969
	c-0.269-1.022,0.316-2.076,1.326-2.387l17.058-4.817c1.022-0.269,2.075,0.316,2.386,1.326l4.773,16.969
	C78.273,65.495,77.654,66.555,76.637,66.865z"/>
<path style="fill:#C49A6C;" d="M55.735,60.545l-1.193-4.286c-0.619-2.165,0.663-4.375,2.784-4.994l10.606-3.005
	c2.165-0.619,4.375,0.663,4.994,2.784l1.193,4.286L55.735,60.545z"/>
<path style="fill:#B7895B;" d="M65.413,57.806c0,0,5.612-7.38,1.591-9.28l2.607-1.37l3.359,2.298l1.723,6.187
	C74.693,55.641,65.413,57.806,65.413,57.806z"/>
<path style="fill:#99D5E8;" d="M54.72,64.044l22.328-6.306l13.044,46.188l-22.328,6.306L54.72,64.044z"/>
<ellipse transform="matrix(0.9624 -0.2718 0.2718 0.9624 -31.0837 28.2864)" style="fill:#99D5E8;" cx="86.572" cy="126.356" rx="43.751" ry="43.751"/>
<ellipse transform="matrix(0.9624 -0.2718 0.2718 0.9624 -31.0837 28.2864)" style="fill:#BCE3F4;" cx="86.572" cy="126.356" rx="41.497" ry="41.497"/>
<path style="fill:#BCE3F4;" d="M77.3,62.092l-20.77,5.877c-1.679,0.486-3.403-0.53-3.889-2.165c-0.486-1.679,0.53-3.403,2.165-3.889
	l20.77-5.877c1.679-0.486,3.403,0.53,3.889,2.165C79.952,59.838,78.98,61.606,77.3,62.092z"/>
<path style="opacity:0.35;fill:#FFFFFF;enable-background:new    ;" d="M76.947,96.605c3.977,4.11-6.408,4.198-13.08,10.65
	s-7.159,16.837-11.136,12.683c-3.977-4.11-1.768-12.683,4.905-19.135C64.352,94.351,72.97,92.451,76.947,96.605z"/>
<path style="fill:#BCE3F4;" d="M57.944,68.905l19.054-5.38l6.378,22.583l-19.054,5.38L57.944,68.905z"/>
<path style="fill:#99D5E8;" d="M76.947,63.506c0,0,0.928,21.742-5.612,23.996c0,0,21.919-3.756,31.154,0.53
	c0,0-11.313-4.596-15.644-3.756C82.471,85.071,76.947,63.506,76.947,63.506z"/>
<g>
	
		<linearGradient id="SVGID_1_" gradientUnits="userSpaceOnUse" x1="48.6019" y1="129.5471" x2="124.5206" y2="129.5471" gradientTransform="matrix(1 0 0 1 0 -0.05)">
		<stop  offset="0" style="stop-color:#FAEB48"/>
		<stop  offset="0.04" style="stop-color:#FEE72F"/>
		<stop  offset="0.117" style="stop-color:#FFD51D"/>
		<stop  offset="0.196" style="stop-color:#FDCA12"/>
		<stop  offset="0.281" style="stop-color:#FDC710"/>
		<stop  offset="0.668" style="stop-color:#F39040"/>
		<stop  offset="0.888" style="stop-color:#ED683C"/>
		<stop  offset="1" style="stop-color:#E83E3B"/>
	</linearGradient>
	<path style="fill:url(#SVGID_1_);" d="M109.029,95.721c7.778,2.43,11.666,11.799,14.053,20.284
		c5.701,20.195-6.054,41.142-26.205,46.842s-41.142-6.054-46.842-26.205c-1.8-6.358-1.906-13.076-0.309-19.488
		c0,0,9.147,14.583,25.056,7.336C90.69,117.286,87.685,89.048,109.029,95.721z"/>
</g>
<path style="fill:#020203;" d="M53.676,123.599c0-0.805,0.18-1.567,0.54-2.287c0.355-0.705,0.595-1.463,0.712-2.244
	c0-0.057,0.014-0.229,0.043-0.518c0.028-0.287,0.064-0.597,0.108-0.928c0.043-0.33,0.086-0.64,0.129-0.928
	c0.043-0.287,0.079-0.475,0.108-0.562c0.057-0.086,0.172-0.294,0.345-0.625l0.54-1.036c0.286-0.552,0.596-1.092,0.928-1.618
	c0.032-0.213,0.083-0.422,0.151-0.626c0.043-0.129,0.079-0.259,0.108-0.388c0.02-0.078,0.034-0.157,0.043-0.237
	c0.883-1.944,2.078-3.73,3.539-5.287c1.459-1.562,3.047-2.998,4.747-4.294c0.057-0.028,0.194-0.101,0.41-0.216
	c0.216-0.115,0.438-0.237,0.669-0.367c0.23-0.129,0.446-0.259,0.647-0.389c0.201-0.129,0.316-0.222,0.345-0.28
	c0.201-0.058,0.46-0.194,0.777-0.41c0.316-0.216,0.503-0.352,0.561-0.41c0.074-0.078,0.146-0.157,0.216-0.237
	c0.115-0.13,0.237-0.266,0.367-0.41c0.129-0.144,0.266-0.281,0.41-0.41c0.144-0.129,0.244-0.194,0.302-0.194
	c0.028-0.028,0.136-0.065,0.324-0.108c0.187-0.043,0.403-0.086,0.647-0.13c0.244-0.043,0.467-0.079,0.669-0.107
	c0.201-0.028,0.345-0.043,0.432-0.043c0.028-0.028,0.114-0.086,0.259-0.172c0.144-0.086,0.309-0.18,0.496-0.281
	c0.187-0.101,0.367-0.187,0.54-0.259c0.173-0.072,0.287-0.108,0.345-0.108h0.388c0.316-0.086,0.632-0.23,0.949-0.432
	c0.316-0.201,0.64-0.395,0.971-0.583c0.33-0.187,0.661-0.352,0.992-0.496c0.319-0.142,0.665-0.215,1.014-0.216h0.259
	c0.028,0.058,0.151,0.151,0.367,0.28s0.367,0.194,0.453,0.194c0.213-0.115,0.421-0.237,0.625-0.367
	c0.302-0.187,0.511-0.338,0.626-0.453c0.92-0.144,1.841-0.259,2.762-0.345c1.852-0.174,3.715-0.174,5.567,0
	c0.949,0.086,1.913,0.201,2.891,0.345c0.028,0,0.194,0.029,0.497,0.086c0.302,0.058,0.654,0.129,1.057,0.216l1.208,0.259
	c0.402,0.086,0.719,0.172,0.949,0.259c0.057,0,0.194,0.058,0.41,0.172c0.216,0.115,0.352,0.173,0.41,0.173
	c0.028,0.058,0.122,0.172,0.281,0.345c0.158,0.172,0.33,0.36,0.518,0.561c0.187,0.202,0.367,0.381,0.54,0.54
	c0.173,0.158,0.302,0.252,0.389,0.28c0.114,0.058,0.309,0.108,0.583,0.151c0.273,0.043,0.575,0.086,0.906,0.13
	c0.33,0.043,0.661,0.072,0.992,0.086c0.331,0.015,0.626,0.022,0.885,0.022h0.345c0.028,0.086,0.093,0.194,0.194,0.323
	c0.214,0.273,0.461,0.52,0.734,0.734c0.129,0.101,0.222,0.166,0.28,0.194c0.028,0.029,0.108,0.064,0.237,0.108
	c0.129,0.043,0.266,0.086,0.41,0.129c0.144,0.043,0.345,0.108,0.604,0.194c0.057,0,0.201,0.13,0.432,0.389
	c0.23,0.259,0.359,0.403,0.388,0.432c0.288,0.202,0.589,0.367,0.906,0.496c0.316,0.129,0.64,0.252,0.971,0.367
	s0.654,0.231,0.971,0.345c0.316,0.116,0.619,0.274,0.907,0.475c0.057,0,0.187,0.115,0.388,0.345c0.201,0.23,0.374,0.388,0.518,0.475
	c1.149,1.31,2.258,2.656,3.323,4.035c1.038,1.356,1.989,2.776,2.848,4.251c0.287,0.49,0.597,1.144,0.928,1.963
	c0.331,0.82,0.64,1.669,0.928,2.546c0.288,0.878,0.525,1.733,0.712,2.567c0.187,0.835,0.309,1.525,0.367,2.071v3.28
	c0,0.145,0.057,0.382,0.173,0.712c0.114,0.331,0.201,0.525,0.259,0.583v0.216c0,0.719-0.058,1.381-0.173,1.984
	c-0.112,0.59-0.255,1.174-0.431,1.748c-0.173,0.562-0.36,1.13-0.561,1.705c-0.209,0.597-0.396,1.201-0.561,1.812
	c-0.104,0.44-0.176,0.887-0.216,1.338c-0.029,0.374-0.065,0.733-0.108,1.078c-0.047,0.359-0.126,0.713-0.237,1.058
	c-0.116,0.36-0.317,0.771-0.604,1.229c-0.077,0.074-0.156,0.146-0.237,0.216l-0.41,0.367c-0.145,0.13-0.281,0.259-0.41,0.389
	l-0.237,0.237c-0.086,0.11-0.165,0.225-0.237,0.345c-0.138,0.218-0.268,0.441-0.389,0.669c-0.119,0.229-0.249,0.452-0.388,0.669
	c-0.084,0.126-0.163,0.256-0.237,0.389c-0.397,0.626-0.844,1.217-1.338,1.77c-0.492,0.55-1.011,1.075-1.554,1.575
	c-0.547,0.504-1.101,0.992-1.661,1.467c-0.561,0.475-1.116,0.957-1.662,1.446c-0.332,0.248-0.656,0.507-0.971,0.776
	c-0.446,0.374-0.914,0.763-1.402,1.165c-0.49,0.403-0.95,0.777-1.381,1.122l-0.863,0.69c-0.23,0.173-0.598,0.346-1.101,0.519
	c-0.503,0.172-1.014,0.359-1.532,0.561c-0.518,0.201-0.971,0.41-1.359,0.626c-0.389,0.216-0.583,0.468-0.583,0.755
	c0,0.317,0.057,0.54,0.172,0.669c0.115,0.13,0.345,0.324,0.69,0.583c0.115,0.058,0.259,0.158,0.432,0.302
	c0.173,0.145,0.345,0.28,0.518,0.41c0.172,0.129,0.33,0.252,0.475,0.366c0.144,0.115,0.23,0.188,0.259,0.216
	c0.332,0.039,0.663,0.089,0.992,0.151c0.23,0.043,0.446,0.086,0.647,0.13c0.201,0.043,0.33,0.064,0.388,0.064
	c0.086,0.058,0.294,0.165,0.626,0.323c0.33,0.158,0.683,0.338,1.057,0.54c0.374,0.2,0.726,0.381,1.057,0.539s0.54,0.237,0.626,0.237
	c0.782,0.386,1.619,0.648,2.481,0.777c0.82,0.114,1.661,0.287,2.524,0.518c0.057,0,0.194,0.064,0.41,0.194
	c0.216,0.129,0.352,0.208,0.41,0.237c0.201,0.086,0.497,0.194,0.885,0.323l1.165,0.389c0.389,0.13,0.741,0.244,1.058,0.345
	c0.316,0.101,0.518,0.151,0.604,0.151c0.115,0.028,0.395,0.087,0.842,0.173c0.445,0.086,0.928,0.173,1.445,0.259
	c0.518,0.086,1,0.165,1.446,0.237c0.446,0.071,0.726,0.122,0.842,0.151c0.114,0.028,0.438,0.136,0.971,0.323
	c0.532,0.187,1.129,0.389,1.791,0.604l1.985,0.647c0.661,0.216,1.165,0.381,1.51,0.496c0.518,0.201,1.028,0.373,1.532,0.518
	c1.009,0.289,1.99,0.664,2.934,1.122c0.475,0.23,0.928,0.532,1.359,0.906c0.288,0.058,0.812,0.158,1.575,0.303
	c1.601,0.304,3.198,0.628,4.791,0.971c0.733,0.157,1.23,0.28,1.489,0.366c0.115,0,0.338,0.065,0.669,0.194
	c0.33,0.13,0.524,0.223,0.583,0.281c0.978,0.373,1.97,0.653,2.978,0.841c1.007,0.187,2.028,0.338,3.064,0.453
	s2.064,0.216,3.086,0.303c1.021,0.086,2.035,0.216,3.042,0.388c0.058,0.058,0.244,0.151,0.561,0.281
	c0.316,0.129,0.503,0.193,0.561,0.193h1.337c0.058,0,0.251-0.064,0.583-0.193l0.713-0.281h4.1l0.432-0.345h6.214
	c0.058,0,0.187-0.059,0.389-0.173c0.201-0.115,0.373-0.216,0.518-0.302c0.469-0.278,0.96-0.516,1.468-0.712
	c0.488-0.188,0.985-0.354,1.488-0.497c0.503-0.144,1.021-0.28,1.554-0.409c0.532-0.13,1.086-0.281,1.661-0.453
	c0.551-0.117,1.072-0.345,1.532-0.669c0.475-0.331,0.949-0.663,1.424-0.993c0.476-0.331,0.957-0.626,1.446-0.885
	c0.506-0.263,1.07-0.396,1.64-0.388c0.46,0,0.842,0.078,1.144,0.237c0.302,0.157,0.54,0.366,0.712,0.625
	c0.173,0.259,0.295,0.562,0.367,0.906c0.071,0.346,0.107,0.705,0.107,1.079c0,0.546-0.101,1.058-0.302,1.532
	s-0.461,0.92-0.776,1.338c-0.325,0.426-0.686,0.823-1.079,1.187c-0.403,0.374-0.806,0.719-1.209,1.036
	c-1.208,0.978-2.424,1.769-3.646,2.373s-2.496,1.208-3.819,1.812c-0.371,0.172-0.762,0.295-1.165,0.367
	c-0.403,0.071-0.798,0.144-1.187,0.216c-0.389,0.071-0.776,0.157-1.165,0.259c-0.38,0.098-0.749,0.235-1.101,0.41
	c-0.176,0.107-0.356,0.208-0.539,0.302c-0.274,0.144-0.568,0.302-0.885,0.475l-0.906,0.496c-0.288,0.158-0.49,0.281-0.604,0.367
	c-2.12,0.055-4.237,0.206-6.344,0.453c-2.106,0.246-4.224,0.369-6.344,0.367h-3.582c-0.662-0.288-1.31-0.447-1.942-0.476
	c-0.633-0.028-1.353-0.144-2.158-0.345c-0.058,0-0.188-0.072-0.389-0.216c-0.202-0.145-0.317-0.216-0.345-0.216h-2.632
	c-0.382-0.082-0.764-0.169-1.144-0.259c-0.619-0.145-1.295-0.302-2.028-0.475c-0.734-0.173-1.46-0.346-2.179-0.519
	c-0.72-0.172-1.267-0.302-1.64-0.388c-0.058,0-0.209-0.065-0.453-0.194c-0.245-0.13-0.396-0.224-0.453-0.28h-0.388
	c-0.231,0-0.49,0.014-0.777,0.043c-0.316,0.03-0.633,0.044-0.95,0.043c-0.317,0-0.655-0.029-1.014-0.086
	c-0.343-0.052-0.672-0.17-0.971-0.346c-0.058-0.029-0.145-0.107-0.259-0.237c-0.115-0.129-0.237-0.267-0.367-0.41
	s-0.259-0.28-0.388-0.41c-0.129-0.129-0.223-0.209-0.281-0.237h-1.64c-0.058,0-0.223-0.036-0.497-0.107
	c-0.304-0.08-0.606-0.167-0.906-0.259c-0.331-0.102-0.64-0.194-0.928-0.28c-0.187-0.056-0.375-0.114-0.561-0.173
	c-0.058,0-0.209-0.021-0.453-0.064c-0.245-0.044-0.511-0.087-0.798-0.13s-0.554-0.086-0.798-0.13
	c-0.167-0.026-0.333-0.062-0.496-0.107c-0.058,0-0.194-0.123-0.41-0.367s-0.353-0.396-0.41-0.453
	c-0.199-0.057-0.401-0.107-0.604-0.15c-0.347-0.08-0.692-0.166-1.036-0.26c-0.343-0.094-0.689-0.18-1.036-0.259
	c-0.203-0.043-0.404-0.093-0.604-0.15c-0.15-0.074-0.301-0.146-0.453-0.216c-0.268-0.126-0.534-0.256-0.799-0.389
	c-0.265-0.133-0.531-0.262-0.798-0.389c-0.162-0.08-0.327-0.152-0.496-0.216c-0.029-0.028-0.123-0.064-0.28-0.107
	c-0.172-0.047-0.345-0.09-0.518-0.13c-0.18-0.041-0.36-0.084-0.54-0.129c-0.099-0.029-0.2-0.051-0.302-0.065
	c-0.228-0.087-0.458-0.166-0.691-0.237c-0.317-0.101-0.518-0.18-0.604-0.237c-0.058,0-0.245-0.086-0.561-0.259
	c-0.342-0.186-0.687-0.366-1.036-0.539c-0.354-0.177-0.706-0.357-1.057-0.54c-0.203-0.112-0.412-0.212-0.626-0.302h-2.546
	c-0.058,0-0.188-0.079-0.389-0.237c-0.22-0.174-0.436-0.354-0.647-0.539c-0.23-0.202-0.439-0.382-0.625-0.54
	c-0.188-0.158-0.295-0.267-0.324-0.323c-0.429-0.307-0.94-0.479-1.467-0.496c-0.505-0.013-1.003-0.123-1.467-0.324
	c-0.801-0.355-1.561-0.796-2.266-1.316c-0.718-0.525-1.511-0.94-2.352-1.229c-0.058,0-0.202-0.021-0.432-0.064
	c-0.508-0.096-1.019-0.175-1.532-0.237c-0.165-0.023-0.331-0.037-0.497-0.044c-0.234-0.088-0.472-0.167-0.712-0.237
	c-0.331-0.101-0.511-0.18-0.54-0.237c-0.029,0-0.08-0.064-0.151-0.194c-0.077-0.138-0.156-0.274-0.237-0.409
	c-0.083-0.139-0.169-0.276-0.259-0.41c-0.052-0.083-0.11-0.162-0.173-0.237h-1.294c-0.058,0-0.194-0.065-0.41-0.194
	c-0.216-0.13-0.353-0.194-0.41-0.194c-0.175-0.082-0.355-0.155-0.539-0.216c-0.258-0.091-0.517-0.177-0.777-0.259
	c-0.245-0.077-0.49-0.156-0.734-0.237c-0.216-0.072-0.353-0.108-0.41-0.108h-0.82c-0.058,0-0.172-0.064-0.345-0.193
	c-0.172-0.13-0.353-0.267-0.539-0.41c-0.171-0.13-0.337-0.267-0.497-0.41c-0.144-0.13-0.23-0.209-0.259-0.237
	c-0.115-0.059-0.345-0.137-0.69-0.237c-0.345-0.102-0.547-0.151-0.604-0.151c-0.164-0.066-0.323-0.146-0.475-0.237
	c-0.23-0.129-0.475-0.259-0.733-0.389c-0.253-0.126-0.505-0.256-0.755-0.388c-0.245-0.13-0.425-0.209-0.54-0.237
	c-0.091-0.051-0.177-0.109-0.259-0.173l-0.367-0.28c-0.117-0.093-0.24-0.18-0.367-0.26c-0.115-0.071-0.188-0.107-0.216-0.107
	c-0.105-0.045-0.213-0.08-0.324-0.107c-0.172-0.047-0.344-0.09-0.518-0.13c-0.298-0.067-0.593-0.146-0.885-0.237
	c-0.086,0-0.273-0.015-0.561-0.043c-0.613-0.062-1.225-0.141-1.834-0.237c-0.164-0.03-0.33-0.052-0.496-0.065
	c-0.419-0.189-0.836-0.383-1.251-0.582c-0.602-0.286-1.199-0.581-1.791-0.885c-0.619-0.316-1.187-0.611-1.705-0.885
	s-0.849-0.468-0.993-0.583c-0.115-0.086-0.345-0.294-0.69-0.625s-0.698-0.69-1.057-1.079c-0.335-0.362-0.673-0.722-1.014-1.079
	c-0.317-0.33-0.518-0.524-0.604-0.582c-0.058,0-0.144-0.044-0.259-0.13c-0.125-0.093-0.254-0.179-0.388-0.259
	c-0.139-0.083-0.275-0.169-0.41-0.259c-0.09-0.063-0.184-0.12-0.28-0.173c-0.378-0.297-0.752-0.599-1.122-0.906
	c-0.49-0.402-0.986-0.806-1.489-1.208c-0.443-0.354-0.882-0.714-1.316-1.079c-0.375-0.316-0.59-0.489-0.647-0.519
	c-0.073-0.095-0.138-0.196-0.194-0.302c-0.114-0.195-0.229-0.389-0.345-0.582c-0.129-0.216-0.259-0.438-0.388-0.669
	s-0.237-0.417-0.324-0.562c-0.137-0.312-0.281-0.622-0.432-0.928l-0.625-1.295c-0.216-0.445-0.41-0.848-0.583-1.208
	c-0.173-0.359-0.274-0.597-0.302-0.712c-0.202-0.417-0.389-0.842-0.561-1.273c-0.23-0.561-0.46-1.129-0.69-1.704
	s-0.439-1.094-0.626-1.554c-0.188-0.46-0.295-0.748-0.324-0.863v-2.891c0-0.086-0.072-0.237-0.215-0.453
	c-0.145-0.216-0.216-0.338-0.216-0.366l-0.151-1.058l-0.237-1.64c-0.086-0.59-0.172-1.15-0.259-1.684
	c-0.067-0.394-0.125-0.79-0.173-1.187v-0.819L53.676,123.599z M62.782,125.11v0.302c0.086,0.059,0.179,0.245,0.28,0.562
	c0.101,0.316,0.151,0.504,0.151,0.561c0.402,1.554,0.726,3.115,0.971,4.683c0.241,1.558,0.654,3.085,1.23,4.553
	c0.804,2.093,1.756,4.127,2.848,6.085c1.106,1.96,2.377,3.822,3.798,5.567c0.028,0.058,0.093,0.137,0.194,0.237
	c0.1,0.101,0.179,0.15,0.237,0.15c0.057,0.059,0.251,0.138,0.583,0.237c0.331,0.102,0.54,0.166,0.625,0.194
	c0.086,0.059,0.288,0.23,0.604,0.519c0.316,0.287,0.661,0.597,1.036,0.928c0.374,0.331,0.733,0.641,1.079,0.928
	c0.346,0.288,0.561,0.475,0.647,0.561c0.028,0.029,0.136,0.059,0.324,0.087c0.187,0.028,0.402,0.064,0.647,0.107
	c0.244,0.043,0.467,0.08,0.669,0.108c0.201,0.028,0.345,0.043,0.431,0.043c0.028,0.028,0.158,0.107,0.389,0.237
	c0.23,0.129,0.489,0.267,0.777,0.41c0.287,0.144,0.554,0.28,0.798,0.409c0.244,0.13,0.41,0.21,0.496,0.238s0.316,0.064,0.69,0.107
	s0.77,0.086,1.187,0.13c0.417,0.043,0.812,0.086,1.187,0.129c0.374,0.043,0.604,0.064,0.69,0.064c0.028,0,0.122,0.022,0.281,0.065
	c0.158,0.043,0.324,0.086,0.496,0.129l0.518,0.13c0.172,0.043,0.287,0.064,0.345,0.064c0.23,0.029,0.417,0.043,0.561,0.043
	s0.287,0.008,0.432,0.021c0.144,0.016,0.259,0.022,0.345,0.022c0.172,0,0.402-0.015,0.69-0.044c0.287-0.028,0.446-0.043,0.475-0.043
	c0.028,0,0.101-0.035,0.216-0.107c0.115-0.072,0.237-0.158,0.367-0.259s0.259-0.194,0.389-0.281
	c0.129-0.086,0.208-0.144,0.237-0.172c0.402-0.145,0.891-0.238,1.467-0.281c0.575-0.043,1.064-0.223,1.467-0.539
	c0.057-0.058,0.179-0.194,0.367-0.41c0.187-0.216,0.395-0.438,0.625-0.669l0.647-0.647c0.201-0.201,0.345-0.33,0.432-0.388
	c0.057,0,0.208-0.022,0.453-0.065c0.244-0.043,0.51-0.086,0.798-0.129c0.287-0.044,0.554-0.087,0.798-0.13
	c0.168-0.026,0.334-0.062,0.497-0.107l0.28-0.281c0.158-0.157,0.331-0.338,0.518-0.539s0.359-0.381,0.518-0.539
	c0.158-0.158,0.266-0.252,0.324-0.281c0.115-0.086,0.28-0.222,0.496-0.409s0.432-0.367,0.647-0.54s0.417-0.323,0.604-0.453
	c0.187-0.129,0.295-0.208,0.324-0.237c0.028-0.028,0.122-0.071,0.281-0.129c0.158-0.058,0.33-0.108,0.518-0.151
	c0.187-0.043,0.367-0.079,0.54-0.108c0.173-0.028,0.273-0.043,0.302-0.043c0.086-0.028,0.194-0.107,0.324-0.237l0.388-0.389
	c0.129-0.129,0.244-0.251,0.345-0.366c0.066-0.085,0.147-0.158,0.237-0.216c0.028-0.058,0.058-0.173,0.086-0.346
	c0.028-0.172,0.065-0.352,0.108-0.539s0.079-0.359,0.108-0.518c0.028-0.158,0.043-0.266,0.043-0.324
	c0.058-0.144,0.136-0.366,0.237-0.669c0.101-0.302,0.18-0.481,0.238-0.539c0.136-0.233,0.287-0.457,0.453-0.669
	c0.1-0.13,0.187-0.252,0.259-0.367c0.071-0.114,0.108-0.187,0.108-0.216c0.028-0.086,0.064-0.302,0.108-0.646
	c0.043-0.346,0.086-0.705,0.129-1.079s0.086-0.734,0.129-1.079c0.043-0.346,0.065-0.562,0.065-0.647
	c0-0.028,0.043-0.136,0.129-0.323c0.086-0.188,0.179-0.396,0.28-0.626c0.101-0.23,0.194-0.438,0.281-0.626
	c0.086-0.187,0.129-0.309,0.129-0.366c0.028-0.087,0.064-0.23,0.108-0.432c0.09-0.422,0.169-0.847,0.237-1.273
	c0.028-0.187,0.043-0.309,0.043-0.367v-5.092c0.058-0.777,0.223-1.597,0.497-2.46c0.273-0.863,0.41-1.711,0.41-2.546
	c-0.029,0-0.043-0.015-0.043-0.043v-0.087c-0.029-0.028-0.043-0.071-0.043-0.129c0-0.144-0.123-0.389-0.367-0.734
	c-0.153-0.214-0.304-0.43-0.453-0.647c-0.058-0.199-0.109-0.401-0.151-0.604c-0.08-0.347-0.166-0.692-0.259-1.036
	c-0.102-0.373-0.188-0.726-0.259-1.057s-0.123-0.54-0.151-0.626c-0.029-0.028-0.08-0.122-0.151-0.28
	c-0.081-0.176-0.167-0.349-0.259-0.519c-0.096-0.175-0.182-0.355-0.259-0.539c-0.048-0.116-0.098-0.232-0.151-0.346
	c-0.029-0.057-0.058-0.223-0.086-0.496c-0.033-0.302-0.069-0.604-0.108-0.906c-0.043-0.33-0.094-0.639-0.151-0.927
	c-0.035-0.189-0.078-0.376-0.129-0.561c0-0.057-0.102-0.201-0.302-0.432c-0.202-0.23-0.425-0.481-0.669-0.755
	c-0.229-0.254-0.452-0.513-0.669-0.777c-0.202-0.244-0.317-0.41-0.345-0.497c-0.326-0.509-0.58-1.061-0.755-1.64
	c-0.189-0.609-0.369-1.22-0.539-1.834c-0.165-0.595-0.367-1.178-0.604-1.748c-0.232-0.548-0.586-1.035-1.036-1.424
	c-0.029-0.028-0.129-0.072-0.302-0.13c-0.177-0.058-0.357-0.109-0.539-0.151c-0.179-0.041-0.359-0.077-0.54-0.108
	c-0.1-0.018-0.201-0.033-0.302-0.043l-0.216-0.216c-0.115-0.115-0.245-0.244-0.388-0.389c-0.134-0.132-0.264-0.269-0.389-0.41
	c-0.082-0.085-0.154-0.179-0.215-0.281c-0.107-0.051-0.215-0.102-0.324-0.151c-0.182-0.082-0.362-0.169-0.54-0.259
	c-0.184-0.093-0.371-0.179-0.561-0.259c-0.173-0.071-0.274-0.122-0.302-0.151c-0.115-0.069-0.223-0.148-0.324-0.237
	c-0.338-0.276-0.683-0.542-1.036-0.798c-0.158-0.115-0.252-0.173-0.28-0.173c-1.016-0.324-2.066-0.526-3.129-0.604
	c-1.053-0.075-2.091-0.292-3.085-0.647c-0.576-0.201-1.036-0.323-1.381-0.367c-0.372-0.044-0.747-0.066-1.122-0.064h-2.503
	c-0.116,0-0.332,0.072-0.647,0.215c-0.317,0.145-0.518,0.216-0.604,0.216h-2.071c-0.115,0.029-0.381,0.145-0.798,0.345
	c-0.417,0.202-0.856,0.425-1.316,0.669l-1.294,0.69c-0.403,0.216-0.647,0.339-0.733,0.367c-0.921,0.431-1.777,0.892-2.568,1.381
	c-0.778,0.479-1.521,1.013-2.223,1.597c-0.699,0.585-1.369,1.204-2.007,1.855c-0.679,0.699-1.32,1.433-1.92,2.201
	c-0.374,0.46-0.576,0.949-0.604,1.467c-0.026,0.495-0.098,0.986-0.216,1.467l-0.237,0.475c-0.129,0.259-0.266,0.525-0.41,0.798
	c-0.144,0.274-0.28,0.533-0.41,0.777c-0.129,0.245-0.194,0.396-0.194,0.453c-0.058,0.115-0.129,0.396-0.216,0.841
	c-0.092,0.481-0.178,0.963-0.259,1.446c-0.086,0.518-0.166,1-0.237,1.445c-0.072,0.446-0.108,0.727-0.108,0.842
	c-0.317,1.18-0.612,2.309-0.885,3.388c-0.278,1.095-0.588,2.181-0.928,3.258L62.782,125.11L62.782,125.11z"/>
<path style="fill:#020203;" d="M131.364,139.524l-0.259-4.315l0.259-4.488v-1.295c0.028-0.144,0.072-0.316,0.13-0.518
	s0.086-0.374,0.086-0.518c0-0.835-0.129-1.69-0.388-2.568c-0.251-0.843-0.453-1.7-0.604-2.567c-0.288-0.201-0.698-0.346-1.229-0.432
	c-0.529-0.085-1.055-0.193-1.575-0.324c-0.483-0.114-0.943-0.311-1.359-0.582c-0.389-0.259-0.583-0.661-0.583-1.208
	c0-0.604,0.201-1.058,0.604-1.359c0.443-0.325,0.93-0.586,1.445-0.777c0.562-0.216,1.137-0.41,1.727-0.582
	c0.589-0.173,1.071-0.432,1.445-0.777c0.374-0.316,0.791-0.704,1.252-1.165c0.46-0.46,0.791-0.82,0.992-1.079
	c0.23-0.459,0.539-1.035,0.928-1.726s0.812-1.359,1.273-2.007c0.429-0.611,0.92-1.175,1.467-1.683
	c0.519-0.475,1.036-0.712,1.554-0.712c0.346,0,0.626,0.094,0.842,0.281c0.216,0.188,0.389,0.417,0.518,0.69
	c0.13,0.273,0.223,0.568,0.28,0.885c0.058,0.317,0.101,0.619,0.13,0.906v5.005l0.216,0.303h2.028c0.719,0,1.381-0.05,1.985-0.151
	c0.572-0.094,1.14-0.21,1.704-0.345c0.532-0.13,1.05-0.244,1.554-0.346c0.533-0.104,1.075-0.154,1.618-0.151
	c0.806,0,1.481,0.303,2.028,0.906c0.546,0.604,0.82,1.324,0.82,2.158c0,0.662-0.108,1.208-0.324,1.64s-0.525,0.777-0.928,1.036
	c-0.435,0.271-0.919,0.454-1.424,0.539c-0.598,0.106-1.205,0.156-1.812,0.151l-2.849-0.216l-2.157,0.216l-2.071-0.216
	c-0.403,0-0.771,0.18-1.101,0.539c-0.331,0.36-0.496,0.698-0.496,1.015l0.388,3.236c0,0.403-0.058,0.792-0.172,1.165
	c-0.115,0.374-0.245,0.756-0.389,1.144c-0.145,0.391-0.275,0.786-0.389,1.187c-0.115,0.403-0.173,0.82-0.173,1.252v0.776
	l0.389,5.007c-0.086,0.172-0.137,0.345-0.151,0.518s-0.021,0.389-0.021,0.647c0,0.201,0.028,0.388,0.087,0.561
	c0.057,0.173,0.086,0.331,0.086,0.475c0.157,1.506,0.172,3.023,0.043,4.531c-0.058,0.665-0.145,1.327-0.259,1.985
	c0.028,0.029,0.087,0.108,0.173,0.237c0.086,0.13,0.18,0.274,0.28,0.432c0.101,0.158,0.194,0.317,0.28,0.475
	c0.087,0.158,0.158,0.252,0.216,0.28c0.23,0.346,0.489,0.604,0.777,0.777c0.287,0.173,0.582,0.323,0.885,0.453
	c0.302,0.129,0.618,0.267,0.949,0.41c0.33,0.144,0.654,0.359,0.971,0.647h1.64c0.662,0,1.295-0.072,1.899-0.216
	c0.586-0.139,1.168-0.29,1.748-0.453c0.561-0.158,1.106-0.31,1.64-0.453c0.542-0.146,1.1-0.218,1.661-0.216
	c0.346,0,0.604,0.172,0.777,0.518c0.172,0.345,0.259,0.676,0.259,0.992c0,0.173-0.008,0.31-0.021,0.41
	c-0.015,0.1-0.052,0.196-0.108,0.28c-0.058,0.087-0.137,0.188-0.237,0.303s-0.223,0.273-0.367,0.475l-0.604,0.863
	c-0.087,0.058-0.224,0.201-0.41,0.432c-0.188,0.23-0.396,0.481-0.626,0.755s-0.46,0.532-0.69,0.776
	c-0.23,0.245-0.403,0.425-0.518,0.54c-0.288,0.316-0.72,0.619-1.295,0.906c-1.155,0.575-2.381,0.995-3.646,1.251
	c-0.59,0.115-1.058,0.173-1.402,0.173l-5.524-1.122c-0.563-0.173-1.111-0.389-1.64-0.647c-0.609-0.29-1.194-0.629-1.748-1.014
	c-0.561-0.389-1.05-0.827-1.467-1.316s-0.684-1.021-0.799-1.597v-2.978c-0.136-0.933-0.301-1.861-0.496-2.784
	c-0.19-0.901-0.284-1.819-0.28-2.74L131.364,139.524L131.364,139.524z"/>
</svg>
