<svg xmlns="http://www.w3.org/2000/svg" viewBox="0 0 226.77 226.77"><g fill="#020203"><path d="M6.381 99.192c0-.805.18-1.567.54-2.287a7.442 7.442 0 0 0 .712-2.244c0-.057.014-.229.043-.518.028-.287.064-.597.108-.928.043-.33.086-.64.129-.928.043-.287.079-.475.108-.562.057-.086.172-.294.345-.625l.54-1.036c.286-.552.596-1.092.928-1.618.032-.213.083-.422.151-.626.043-.129.079-.259.108-.388.02-.078.034-.157.043-.237a19.527 19.527 0 0 1 3.539-5.287 38.117 38.117 0 0 1 4.747-4.294c.057-.028.194-.101.41-.216.216-.115.438-.237.669-.367.23-.129.446-.259.647-.389.201-.129.316-.222.345-.28.201-.058.46-.194.777-.41.316-.216.503-.352.561-.41.074-.078.146-.157.216-.237.115-.13.237-.266.367-.41.129-.144.266-.281.41-.41.144-.129.244-.194.302-.194.028-.028.136-.065.324-.108.187-.043.403-.086.647-.13.244-.043.467-.079.669-.107.201-.028.345-.043.432-.043.028-.028.114-.086.259-.172.144-.086.309-.18.496-.281s.367-.187.54-.259c.173-.072.287-.108.345-.108h.388c.316-.086.632-.23.949-.432.316-.201.64-.395.971-.583.33-.187.661-.352.992-.496a2.512 2.512 0 0 1 1.014-.216h.259c.028.058.151.151.367.28s.367.194.453.194c.213-.115.421-.237.625-.367.302-.187.511-.338.626-.453.92-.144 1.841-.259 2.762-.345a29.75 29.75 0 0 1 5.567 0c.949.086 1.913.201 2.891.345.028 0 .194.029.497.086.302.058.654.129 1.057.216l1.208.259c.402.086.719.172.949.259.057 0 .194.058.41.172.216.115.352.173.41.173.028.058.122.172.281.345.158.172.33.36.518.561.187.202.367.381.54.54.173.158.302.252.389.28.114.058.309.108.583.151.273.043.575.086.906.13.33.043.661.072.992.086.331.015.626.022.885.022h.345c.028.086.093.194.194.323.214.273.461.52.734.734.129.101.222.166.28.194.028.029.108.064.237.108.129.043.266.086.41.129s.345.108.604.194c.057 0 .201.13.432.389.23.259.359.403.388.432.288.202.589.367.906.496.316.129.64.252.971.367s.654.231.971.345c.316.116.619.274.907.475.057 0 .187.115.388.345.201.23.374.388.518.475a83.805 83.805 0 0 1 3.323 4.035 40.643 40.643 0 0 1 2.848 4.251c.287.49.597 1.144.928 1.963.331.82.64 1.669.928 2.546.288.878.525 1.733.712 2.567.187.835.309 1.525.367 2.071v3.28c0 .145.057.382.173.712.114.331.201.525.259.583v.216c0 .719-.058 1.381-.173 1.984a16.39 16.39 0 0 1-.431 1.748c-.173.562-.36 1.13-.561 1.705a25.984 25.984 0 0 0-.561 1.812c-.104.44-.176.887-.216 1.338-.029.374-.065.733-.108 1.078a5.993 5.993 0 0 1-.237 1.058c-.116.36-.317.771-.604 1.229a6.067 6.067 0 0 1-.237.216l-.41.367c-.145.13-.281.259-.41.389l-.237.237c-.086.11-.165.225-.237.345-.138.218-.268.441-.389.669a8.553 8.553 0 0 1-.388.669 5.68 5.68 0 0 0-.237.389 13.54 13.54 0 0 1-1.338 1.77 22.862 22.862 0 0 1-1.554 1.575c-.547.504-1.101.992-1.661 1.467-.561.475-1.116.957-1.662 1.446-.332.248-.656.507-.971.776-.446.374-.914.763-1.402 1.165-.49.403-.95.777-1.381 1.122l-.863.69c-.23.173-.598.346-1.101.519-.503.172-1.014.359-1.532.561-.518.201-.971.41-1.359.626-.389.216-.583.468-.583.755 0 .317.057.54.172.669.115.13.345.324.69.583.115.058.259.158.432.302.173.145.345.28.518.41.172.129.33.252.475.366.144.115.23.188.259.216.332.039.663.089.992.151.23.043.446.086.647.13.201.043.33.064.388.064.086.058.294.165.626.323.33.158.683.338 1.057.54.374.2.726.381 1.057.539s.54.237.626.237a8.421 8.421 0 0 0 2.481.777c.82.114 1.661.287 2.524.518.057 0 .194.064.41.194.216.129.352.208.41.237.201.086.497.194.885.323l1.165.389c.389.13.741.244 1.058.345.316.101.518.151.604.151.115.028.395.087.842.173.445.086.928.173 1.445.259.518.086 1 .165 1.446.237.446.071.726.122.842.151.114.028.438.136.971.323.532.187 1.129.389 1.791.604l1.985.647c.661.216 1.165.381 1.51.496.518.201 1.028.373 1.532.518 1.009.289 1.99.664 2.934 1.122.475.23.928.532 1.359.906.288.058.812.158 1.575.303 1.601.304 3.198.628 4.791.971.733.157 1.23.28 1.489.366.115 0 .338.065.669.194.33.13.524.223.583.281.978.373 1.97.653 2.978.841 1.007.187 2.028.338 3.064.453s2.064.216 3.086.303c1.021.086 2.035.216 3.042.388.058.058.244.151.561.281.316.129.503.193.561.193h1.337c.058 0 .251-.064.583-.193l.713-.281h4.1l.432-.345h6.214c.058 0 .187-.059.389-.173.201-.115.373-.216.518-.302a9.79 9.79 0 0 1 1.468-.712c.488-.188.985-.354 1.488-.497.503-.144 1.021-.28 1.554-.409.532-.13 1.086-.281 1.661-.453a4.162 4.162 0 0 0 1.532-.669c.475-.331.949-.663 1.424-.993.476-.331.957-.626 1.446-.885a3.452 3.452 0 0 1 1.64-.388c.46 0 .842.078 1.144.237.302.157.54.366.712.625.173.259.295.562.367.906.071.346.107.705.107 1.079 0 .546-.101 1.058-.302 1.532s-.461.92-.776 1.338a9.338 9.338 0 0 1-1.079 1.187c-.403.374-.806.719-1.209 1.036-1.208.978-2.424 1.769-3.646 2.373s-2.496 1.208-3.819 1.812a4.756 4.756 0 0 1-1.165.367c-.403.071-.798.144-1.187.216-.389.071-.776.157-1.165.259-.38.098-.749.235-1.101.41a8.622 8.622 0 0 1-.539.302c-.274.144-.568.302-.885.475l-.906.496c-.288.158-.49.281-.604.367-2.12.055-4.237.206-6.344.453a54.236 54.236 0 0 1-6.344.367h-3.582c-.662-.288-1.31-.447-1.942-.476-.633-.028-1.353-.144-2.158-.345-.058 0-.188-.072-.389-.216-.202-.145-.317-.216-.345-.216h-2.632a55.63 55.63 0 0 1-1.144-.259c-.619-.145-1.295-.302-2.028-.475-.734-.173-1.46-.346-2.179-.519-.72-.172-1.267-.302-1.64-.388-.058 0-.209-.065-.453-.194-.245-.13-.396-.224-.453-.28h-.388c-.231 0-.49.014-.777.043-.316.03-.633.044-.95.043-.317 0-.655-.029-1.014-.086a2.717 2.717 0 0 1-.971-.346c-.058-.029-.145-.107-.259-.237-.115-.129-.237-.267-.367-.41s-.259-.28-.388-.41c-.129-.129-.223-.209-.281-.237h-1.641c-.058 0-.223-.036-.497-.107-.304-.08-.606-.167-.906-.259-.331-.102-.64-.194-.928-.28a36.34 36.34 0 0 1-.561-.173c-.058 0-.209-.021-.453-.064-.245-.044-.511-.087-.798-.13s-.554-.086-.798-.13a4.424 4.424 0 0 1-.496-.107c-.058 0-.194-.123-.41-.367s-.353-.396-.41-.453a8.875 8.875 0 0 0-.604-.15 26.58 26.58 0 0 1-1.036-.26c-.343-.094-.689-.18-1.036-.259a9.025 9.025 0 0 1-.604-.15c-.15-.074-.301-.146-.453-.216a34.607 34.607 0 0 1-.799-.389 41.903 41.903 0 0 0-.798-.389 5.59 5.59 0 0 0-.496-.216c-.029-.028-.123-.064-.28-.107a13.52 13.52 0 0 0-.518-.13 26.41 26.41 0 0 1-.54-.129 2.083 2.083 0 0 0-.302-.065 10.619 10.619 0 0 0-.691-.237c-.317-.101-.518-.18-.604-.237-.058 0-.245-.086-.561-.259a30.796 30.796 0 0 0-1.036-.539 70.01 70.01 0 0 1-1.057-.54 6.552 6.552 0 0 0-.626-.302h-2.546c-.058 0-.188-.079-.389-.237-.22-.174-.436-.354-.647-.539-.23-.202-.439-.382-.625-.54-.188-.158-.295-.267-.324-.323a2.669 2.669 0 0 0-1.467-.496 3.946 3.946 0 0 1-1.467-.324 12.026 12.026 0 0 1-2.266-1.316 8.87 8.87 0 0 0-2.352-1.229c-.058 0-.202-.021-.432-.064a23.317 23.317 0 0 0-1.532-.237 5.181 5.181 0 0 0-.497-.044 9.896 9.896 0 0 0-.712-.237c-.331-.101-.511-.18-.54-.237-.029 0-.08-.064-.151-.194a15.002 15.002 0 0 0-.237-.409 9.13 9.13 0 0 0-.259-.41 2.113 2.113 0 0 0-.173-.237h-1.294c-.058 0-.194-.065-.41-.194-.216-.13-.353-.194-.41-.194a4.925 4.925 0 0 0-.539-.216 24.384 24.384 0 0 0-.777-.259c-.245-.077-.49-.156-.734-.237-.216-.072-.353-.108-.41-.108h-.82c-.058 0-.172-.064-.345-.193-.172-.13-.353-.267-.539-.41a8.13 8.13 0 0 1-.497-.41c-.144-.13-.23-.209-.259-.237-.115-.059-.345-.137-.69-.237-.345-.102-.547-.151-.604-.151a3.393 3.393 0 0 1-.475-.237c-.23-.129-.475-.259-.733-.389a35.809 35.809 0 0 1-.755-.388c-.245-.13-.425-.209-.54-.237a2.048 2.048 0 0 1-.259-.173l-.367-.28a4.118 4.118 0 0 0-.367-.26c-.115-.071-.188-.107-.216-.107a2.049 2.049 0 0 0-.324-.107c-.172-.047-.344-.09-.518-.13a11.316 11.316 0 0 1-.885-.237c-.086 0-.273-.015-.561-.043a33.306 33.306 0 0 1-1.834-.237 4.877 4.877 0 0 0-.496-.065 59.01 59.01 0 0 1-1.251-.582 64.684 64.684 0 0 1-1.791-.885c-.619-.316-1.187-.611-1.705-.885s-.849-.468-.993-.583a9.863 9.863 0 0 1-.69-.625c-.345-.331-.698-.69-1.057-1.079a93.739 93.739 0 0 0-1.014-1.079c-.317-.33-.518-.524-.604-.582-.058 0-.144-.044-.259-.13a4.592 4.592 0 0 0-.388-.259 9.735 9.735 0 0 1-.41-.259 3.099 3.099 0 0 0-.28-.173 54.136 54.136 0 0 1-1.122-.906c-.49-.402-.986-.806-1.489-1.208a67.926 67.926 0 0 1-1.316-1.079c-.375-.316-.59-.489-.647-.519a2.125 2.125 0 0 1-.194-.302 55.682 55.682 0 0 0-.345-.582c-.129-.216-.259-.438-.388-.669s-.237-.417-.324-.562a22.944 22.944 0 0 0-.432-.928l-.625-1.295c-.216-.445-.41-.848-.583-1.208-.173-.359-.274-.597-.302-.712a19.496 19.496 0 0 1-.561-1.273c-.23-.561-.46-1.129-.69-1.704s-.439-1.094-.626-1.554c-.188-.46-.295-.748-.324-.863v-2.891c0-.086-.072-.237-.215-.453-.145-.216-.216-.338-.216-.366l-.151-1.058-.237-1.64c-.086-.59-.172-1.15-.259-1.684a24.94 24.94 0 0 1-.173-1.187v-.819h-.002zm9.106 1.511v.302c.086.059.179.245.28.562.101.316.151.504.151.561.402 1.554.726 3.115.971 4.683a21.44 21.44 0 0 0 1.23 4.553 47.364 47.364 0 0 0 2.848 6.085 39.766 39.766 0 0 0 3.798 5.567c.028.058.093.137.194.237.1.101.179.15.237.15.057.059.251.138.583.237.331.102.54.166.625.194.086.059.288.23.604.519.316.287.661.597 1.036.928.374.331.733.641 1.079.928.346.288.561.475.647.561.028.029.136.059.324.087.187.028.402.064.647.107.244.043.467.08.669.108.201.028.345.043.431.043.028.028.158.107.389.237.23.129.489.267.777.41.287.144.554.28.798.409.244.13.41.21.496.238s.316.064.69.107c.374.043.77.086 1.187.13.417.043.812.086 1.187.129.374.043.604.064.69.064.028 0 .122.022.281.065.158.043.324.086.496.129l.518.13c.172.043.287.064.345.064.23.029.417.043.561.043s.287.008.432.021c.144.016.259.022.345.022.172 0 .402-.015.69-.044.287-.028.446-.043.475-.043.028 0 .101-.035.216-.107.115-.072.237-.158.367-.259s.259-.194.389-.281c.129-.086.208-.144.237-.172.402-.145.891-.238 1.467-.281.575-.043 1.064-.223 1.467-.539.057-.058.179-.194.367-.41.187-.216.395-.438.625-.669l.647-.647c.201-.201.345-.33.432-.388.057 0 .208-.022.453-.065.244-.043.51-.086.798-.129.287-.044.554-.087.798-.13.168-.026.334-.062.497-.107l.28-.281c.158-.157.331-.338.518-.539s.359-.381.518-.539c.158-.158.266-.252.324-.281.115-.086.28-.222.496-.409s.432-.367.647-.54.417-.323.604-.453c.187-.129.295-.208.324-.237.028-.028.122-.071.281-.129.158-.058.33-.108.518-.151.187-.043.367-.079.54-.108.173-.028.273-.043.302-.043.086-.028.194-.107.324-.237l.388-.389c.129-.129.244-.251.345-.366a.956.956 0 0 1 .237-.216c.028-.058.058-.173.086-.346.028-.172.065-.352.108-.539.043-.187.079-.359.108-.518.028-.158.043-.266.043-.324.058-.144.136-.366.237-.669.101-.302.18-.481.238-.539a5.95 5.95 0 0 1 .453-.669c.1-.13.187-.252.259-.367.071-.114.108-.187.108-.216.028-.086.064-.302.108-.646.043-.346.086-.705.129-1.079s.086-.734.129-1.079c.043-.346.065-.562.065-.647 0-.028.043-.136.129-.323.086-.188.179-.396.28-.626.101-.23.194-.438.281-.626.086-.187.129-.309.129-.366.028-.087.064-.23.108-.432a25 25 0 0 0 .237-1.273c.028-.187.043-.309.043-.367v-5.092c.058-.777.223-1.597.497-2.46.273-.863.41-1.711.41-2.546-.029 0-.043-.015-.043-.043v-.087c-.029-.028-.043-.071-.043-.129 0-.144-.123-.389-.367-.734-.153-.214-.304-.43-.453-.647a7.837 7.837 0 0 1-.151-.604c-.08-.347-.166-.692-.259-1.036-.102-.373-.188-.726-.259-1.057s-.123-.54-.151-.626c-.029-.028-.08-.122-.151-.28a8.959 8.959 0 0 0-.259-.519 5.674 5.674 0 0 1-.259-.539 8.827 8.827 0 0 0-.151-.346c-.029-.057-.058-.223-.086-.496a46.579 46.579 0 0 0-.108-.906c-.043-.33-.094-.639-.151-.927a6.702 6.702 0 0 0-.129-.561c0-.057-.102-.201-.302-.432-.202-.23-.425-.481-.669-.755a22.44 22.44 0 0 1-.669-.777c-.202-.244-.317-.41-.345-.497a6.56 6.56 0 0 1-.755-1.64 62.025 62.025 0 0 1-.539-1.834 14.973 14.973 0 0 0-.604-1.748 3.882 3.882 0 0 0-1.036-1.424c-.029-.028-.129-.072-.302-.13a6.236 6.236 0 0 0-.539-.151 9.914 9.914 0 0 0-.54-.108 3.85 3.85 0 0 0-.302-.043l-.216-.216c-.115-.115-.245-.244-.388-.389a8.37 8.37 0 0 1-.389-.41 1.55 1.55 0 0 1-.215-.281 16.027 16.027 0 0 0-.324-.151 13.37 13.37 0 0 1-.54-.259 8.891 8.891 0 0 0-.561-.259c-.173-.071-.274-.122-.302-.151a2.23 2.23 0 0 1-.324-.237 22.808 22.808 0 0 0-1.036-.798c-.158-.115-.252-.173-.28-.173a13.563 13.563 0 0 0-3.129-.604 11.628 11.628 0 0 1-3.085-.647c-.576-.201-1.036-.323-1.381-.367a9.142 9.142 0 0 0-1.122-.064h-2.503c-.116 0-.332.072-.647.215-.317.145-.518.216-.604.216H33.05c-.115.029-.381.145-.798.345-.417.202-.856.425-1.316.669l-1.294.69c-.403.216-.647.339-.733.367-.921.431-1.777.892-2.568 1.381a19.292 19.292 0 0 0-2.223 1.597 27.72 27.72 0 0 0-2.007 1.855 27.13 27.13 0 0 0-1.92 2.201c-.374.46-.576.949-.604 1.467a7.893 7.893 0 0 1-.216 1.467l-.237.475c-.129.259-.266.525-.41.798-.144.274-.28.533-.41.777-.129.245-.194.396-.194.453-.058.115-.129.396-.216.841-.092.481-.178.963-.259 1.446-.086.518-.166 1-.237 1.445-.072.446-.108.727-.108.842-.317 1.18-.612 2.309-.885 3.388a59.264 59.264 0 0 1-.928 3.258v.217z"/><path d="M103.869 127.287c-.288 0-.568.064-.841.193-.274.13-.54.296-.798.497-.259.201-.525.403-.799.604-.273.202-.554.36-.841.475-.058.059-.209.123-.453.194a9.092 9.092 0 0 1-.798.194c-.288.086-.554.158-.798.216-.245.058-.41.115-.496.173-.029 0-.108.051-.238.15a9.684 9.684 0 0 0-.82.735c-.129.129-.194.209-.194.237a.537.537 0 0 0-.194.043 2.79 2.79 0 0 0-.194.086 2.03 2.03 0 0 0-.216.087c-.46.201-.921.323-1.381.366-.875.088-1.757.088-2.632 0a3.187 3.187 0 0 1-1.208-.366c-1.036-.403-1.949-.69-2.74-.863-.792-.173-1.482-.402-2.072-.69-.59-.287-1.107-.719-1.553-1.295-.447-.575-.842-1.467-1.187-2.676 0-.2.014-.531.043-.992.028-.46.043-.978.043-1.554 0-.575-.015-1.064-.043-1.467a15.54 15.54 0 0 1-.043-1.079c0-.028-.021-.13-.064-.303-.043-.172-.094-.366-.151-.582s-.115-.41-.172-.583c-.058-.172-.101-.272-.129-.302v-.389l.604-2.157c0-.489-.101-.949-.302-1.381a3.04 3.04 0 0 1-.302-1.295c0-.46.028-.885.086-1.273.055-.382.204-.745.432-1.057l-.302-3.28v-8.07c-.058-.2-.209-.488-.453-.862a23.869 23.869 0 0 0-.799-1.144 13.484 13.484 0 0 0-.841-1.036c-.274-.302-.468-.481-.583-.539-.331-.18-.669-.345-1.014-.497a8.957 8.957 0 0 1-1.014-.518c-.317-.187-.583-.41-.798-.669s-.324-.589-.324-.992c0-.489.071-.87.216-1.144.144-.273.331-.481.561-.626.23-.144.496-.237.798-.28.302-.044.625-.065.971-.065h1.726l3.496.216c.661 0 1.266-.071 1.812-.216a6.59 6.59 0 0 1 1.683-.216c.776 0 1.431.145 1.963.432.516.274.959.666 1.294 1.144.331.475.568 1.015.712 1.619.144.604.216 1.237.216 1.898v.13a15.533 15.533 0 0 0-.561 2.503 29.445 29.445 0 0 0-.237 2.481 69.66 69.66 0 0 0-.086 2.503 33.46 33.46 0 0 1-.151 2.61l-.518 4.014.302 1.208c0 .23-.022.403-.065.519s-.094.244-.151.388v7.596c0 .547.108.979.324 1.295.215.316.467.597.755.841.287.245.589.49.906.734.316.244.575.539.777.884 0 .029.021.173.065.432.043.259.093.389.151.389.144.086.432.188.863.302.431.115.884.231 1.359.346.475.115.935.209 1.381.28.446.072.755.108.928.108.834 0 1.582-.05 2.244-.151s1.23-.302 1.705-.604a4 4 0 0 0 1.208-1.208c.33-.503.583-1.172.755-2.007 0-.058.036-.136.108-.237a.6.6 0 0 1 .194-.194c.489-.748.841-1.546 1.057-2.395s.381-1.719.497-2.611l-.647-2.849c.008-.337.066-.672.173-.992.114-.373.244-.762.388-1.165.144-.402.273-.806.388-1.208.115-.403.173-.791.173-1.166 0-.575-.037-1.128-.108-1.661-.076-.556-.17-1.11-.281-1.661a15.066 15.066 0 0 0-.259-1.662 7.236 7.236 0 0 1-.172-1.531v-3.15a3.478 3.478 0 0 0-.993-1.684 8.114 8.114 0 0 0-1.683-1.208 15.372 15.372 0 0 0-1.985-.906 18.098 18.098 0 0 1-1.92-.842c-.59-.302-1.072-.632-1.445-.992a1.751 1.751 0 0 1-.561-1.316c0-.114.007-.194.021-.237s.079-.108.194-.194c.489-.316.913-.611 1.273-.885a12.42 12.42 0 0 1 1.036-.712 5.04 5.04 0 0 1 1.014-.475c.391-.122.799-.18 1.208-.172h.992l3.453 1.337c.432.202.963.339 1.597.41.632.072 1.287.151 1.964.237.676.086 1.345.18 2.007.28a6.738 6.738 0 0 1 1.791.518c.532.245.963.576 1.294.993s.497.957.497 1.618v.41c0 .216-.015.353-.043.41 0 .028-.044.122-.13.28s-.18.323-.28.496c-.096.164-.19.329-.281.496-.086.159-.129.252-.129.28-.059.231-.151.576-.28 1.036-.13.461-.26.942-.389 1.445-.183.711-.363 1.423-.539 2.136v3.366l-.432 1.726c0 .49.028.993.086 1.511s.114 1.036.173 1.554c.173.835.259 1.755.259 2.762l-.086.82c-.09.303-.183.605-.281.906-.129.403-.266.676-.41.819v2.676l.303 5.006c0 .403-.051.713-.151.928-.101.216-.151.482-.151.799 0 .374.122.792.367 1.252.244.46.567.69.971.69.316 0 .611-.044.885-.13s.54-.18.799-.28.511-.194.755-.28c.244-.087.511-.13.799-.13.575 0 1.014.194 1.316.583.302.388.453.812.453 1.272 0 .72-.296 1.259-.885 1.618-.591.36-1.295.634-2.115.82-.819.188-1.647.36-2.481.518-.835.158-1.496.41-1.984.756-1.181.086-2.158.15-2.935.193-.777.044-1.612.065-2.503.065h-1.036c-.259-.346-.446-.784-.561-1.316a33.881 33.881 0 0 1-.302-1.575 10.738 10.738 0 0 0-.302-1.338c-.123-.375-.31-.562-.568-.562zm38.581-.691c-.115.059-.296.224-.54.497s-.438.409-.582.409l-1.64.82a2.094 2.094 0 0 0-.281.194c-.129.102-.273.216-.432.346-.158.129-.295.244-.409.345-.116.102-.188.151-.216.151-.104.041-.213.07-.324.086-.158.029-.331.058-.518.086-.188.029-.36.051-.518.065-.122.013-.244.02-.367.021-.23.058-.439.158-.626.302-.188.145-.374.31-.561.496a8.122 8.122 0 0 1-.626.562c-.23.188-.489.353-.776.496h-4.101c-.144 0-.338-.028-.582-.086-.245-.058-.504-.13-.777-.216a7.766 7.766 0 0 1-1.402-.605c0-.058-.079-.194-.237-.41s-.252-.395-.28-.539a.544.544 0 0 1-.13-.216c-.086-.086-.129-.173-.129-.259l-1.165-1.122c-.231-.46-.425-1.043-.583-1.748-.158-.704-.237-1.287-.237-1.748l.302-.906-.302-.906v-.518c0-.144.036-.338.107-.583.144-.482.309-.957.497-1.423.086-.216.157-.366.216-.453l.323-.323c.187-.188.396-.402.626-.647l.626-.669c.187-.201.309-.346.366-.432.028 0 .137-.101.324-.302.187-.201.28-.331.28-.389l.086-.173a.402.402 0 0 0 .043-.173c.489-.315.964-.653 1.425-1.014.46-.359.978-.669 1.554-.928.028-.028.237-.122.625-.28.389-.158.82-.331 1.295-.519.475-.187.942-.352 1.402-.496.46-.144.806-.244 1.036-.302.287-.144.589-.331.906-.562a27.29 27.29 0 0 1 1.77-1.186c.259-.158.475-.237.647-.237h1.122c.028 0 .114-.043.259-.13.057-.028.129-.071.216-.129.114-.028.395-.071.841-.13.446-.057.74-.086.885-.086l.562-.733c.2-.115.402-.209.604-.281.201-.071.389-.15.562-.237.173-.086.323-.208.453-.366.129-.158.237-.381.323-.669a9.147 9.147 0 0 0 .41-1.921c.071-.676.108-1.316.108-1.92v-.949c0-.058-.087-.216-.26-.475-.172-.26-.259-.446-.259-.562l-.518-2.201-.949-1.165-.475-.906c-.115-.058-.23-.201-.346-.432a2.302 2.302 0 0 1-.216-.561c-.058-.173-.273-.338-.647-.496s-.791-.303-1.251-.432c-.461-.13-.914-.23-1.359-.303-.446-.071-.755-.107-.928-.107-.059 0-.28-.007-.669-.021s-.712-.021-.972-.021c-.259 0-.611.021-1.057.064-.446.043-.871.13-1.273.259-.403.13-.755.31-1.057.539a1.086 1.086 0 0 0-.453.906v.389c.028.059.086.181.172.367.087.188.173.389.259.604.087.216.166.418.237.604.072.188.108.31.108.367 0 .115-.036.28-.108.496-.073.22-.138.444-.193.669-.202.921-.475 1.626-.82 2.114-.346.49-.893.965-1.64 1.425l-.519.388a2.97 2.97 0 0 0-.302.259h-3.279c-.26 0-.475-.1-.647-.302a2.644 2.644 0 0 1-.432-.712 4.44 4.44 0 0 1-.259-.82 3.136 3.136 0 0 1-.087-.625c0-.173.028-.403.087-.69.057-.288.144-.568.259-.842.114-.273.237-.532.366-.777.13-.244.267-.438.41-.582.087-.201.188-.374.303-.519.057-.144.122-.259.193-.345.048-.059.099-.117.151-.173l.69-.69c.633-.402 1.165-.819 1.597-1.251s.935-.892 1.511-1.381l3.021-1.985a4.08 4.08 0 0 1 .799-.583c.244-.129.496-.237.755-.323.259-.087.524-.158.799-.216.272-.058.597-.158.971-.303.028 0 .107-.028.237-.086s.266-.122.41-.194c.144-.071.287-.136.432-.194a5.37 5.37 0 0 0 .302-.129c.144-.028.424-.087.842-.173.417-.086.863-.173 1.338-.259.475-.087.928-.158 1.359-.216s.733-.086.906-.086c.144 0 .28.05.41.15.129.102.222.151.28.151.086 0 .216.007.388.021.173.015.353.036.54.064.187.029.359.051.518.065s.266.036.324.064c.172.058.402.137.69.237.287.101.575.209.862.323.288.115.547.216.777.303.229.086.373.144.432.172l.216.216c.114.115.251.253.41.41l.453.453c.144.145.244.259.302.346.316.46.64.878.972 1.251.33.374.566.806.711 1.295.145.288.252.598.324.928.072.331.145.655.215.971.072.317.166.619.281.906.115.288.303.547.561.777v2.676a79.538 79.538 0 0 1-.193 5.588 139.289 139.289 0 0 0-.281 5.632c-.115.288-.215.568-.301.842a3.01 3.01 0 0 0-.131.928c0 .259.037.547.109.863.07.316.107.547.107.69l-.389.82c-.029.115-.043.23-.043.345v.475c0 .432.014.893.043 1.381.027.49.1.979.215 1.468s.281.949.498 1.381c.215.432.523.791.928 1.079.143.115.338.28.582.496s.424.323.539.323h.172c.289 0 .619-.05.994-.15.373-.101.762-.216 1.164-.346s.812-.252 1.23-.367c.4-.112.814-.17 1.23-.172.545 0 .818.172.818.518 0 .921-.18 1.812-.539 2.676s-.855 1.633-1.488 2.309a7.686 7.686 0 0 1-2.201 1.64c-.834.418-1.74.626-2.719.626s-1.928-.05-2.849-.151-1.928-.352-3.021-.755l-.302-.216c-.059-.058-.194-.237-.41-.539-.216-.303-.446-.626-.69-.972-.228-.32-.451-.644-.669-.971-.202-.302-.317-.496-.346-.583l-1.035-.906h-.687v.002zm-9.753-6.473c0 .46.078.992.237 1.597.155.599.395 1.173.712 1.704.316.533.704.986 1.165 1.359.46.375.978.562 1.554.562a.998.998 0 0 0 .302-.043c.087-.028.33-.144.733-.346l3.928-.345c.086-.058.223-.18.41-.367.187-.187.373-.381.561-.582.187-.201.359-.389.518-.562s.266-.302.324-.389c.028 0 .079-.086.15-.259.072-.173.166-.389.281-.647.114-.259.223-.531.323-.819.101-.287.194-.547.28-.777.058-.144.108-.359.151-.647.043-.287.064-.445.064-.475l-.086-.949a10.373 10.373 0 0 1-.043-.949c0-.287.014-.554.043-.799.028-.244.058-.496.086-.755l.303-.949v-.777c0-.487-.168-.96-.475-1.338-.317-.402-.777-.604-1.382-.604-.489 0-.899.107-1.229.323-.331.216-.712.482-1.144.799-.145.086-.432.237-.863.453s-.885.432-1.359.647-.921.425-1.338.625c-.417.202-.697.331-.842.389l-.819.432c-.059 0-.173.029-.346.086-.172.059-.259.102-.259.13l-.604 1.122-1.036 1.036c-.145.316-.23.684-.259 1.1-.028.417-.041.755-.041 1.014zm29.432 8.933c0-.229.15-.395.453-.496.302-.101.524-.223.669-.366.315-.346.683-.59 1.1-.734a8.27 8.27 0 0 0 .885-.345c.23-.144.389-.324.475-.54.087-.216.288-.381.604-.496l1.036-.345c.172 0 .316-.13.432-.389.114-.259.187-.402.216-.432-.029-.144-.044-.389-.044-.733v-2.093c0-.331.015-.611.044-.842l.259-1.295v-6.646c0-.058.014-.188.043-.389.028-.201.058-.417.086-.647.028-.229.058-.445.087-.647.028-.2.057-.33.086-.388v-.303a10.184 10.184 0 0 1-.086-.798c-.029-.359-.059-.719-.087-1.079a44.86 44.86 0 0 0-.086-.971 8.187 8.187 0 0 1-.043-.519 2.645 2.645 0 0 1-.087-.432c-.031-.215-.059-.43-.086-.646a10.816 10.816 0 0 1-.085-1.079 4.44 4.44 0 0 0-.432-1.165 7.591 7.591 0 0 0-.69-1.058c-.26-.33-.533-.661-.82-.992-.279-.32-.552-.644-.82-.972-.028 0-.129-.107-.302-.323s-.259-.353-.259-.41l-2.546-2.373 2.071-2.115c.057-.028.179-.086.366-.173.188-.086.389-.179.604-.28.216-.101.432-.194.647-.28s.381-.144.496-.173c.058-.057.18-.107.367-.15.187-.044.388-.079.604-.108.322-.042.646-.071.971-.085a5.71 5.71 0 0 0 1.488-.712c.446-.303.885-.604 1.316-.906.432-.303.87-.568 1.316-.799.445-.229.956-.346 1.532-.346h.69c.028.029.187.181.475.453.287.274.503.469.647.583.2.317.302.712.302 1.187s.015.936.043 1.381c.028.447.13.828.303 1.144.172.317.546.476 1.122.476h.28c.101 0 .15-.028.15-.087.115-.028.273-.093.476-.194.2-.101.409-.223.625-.366s.417-.287.604-.432c.187-.144.323-.259.41-.346l1.77-1.338c.057-.057.244-.193.561-.409s.532-.382.647-.497c.028 0 .144-.007.345-.021l.626-.043c.216-.014.425-.036.626-.064s.346-.058.432-.087c.028 0 .122-.028.28-.086s.331-.114.518-.173c.188-.057.353-.114.497-.173.144-.057.229-.086.259-.086h.475c.661 0 1.201.202 1.618.604.423.409.806.857 1.144 1.338.201.259.324.625.367 1.101.043.475.136.827.28 1.057 0 .087.043.173.13.259l.172.173c0 1.381-.194 2.611-.582 3.689a5.389 5.389 0 0 1-1.964 2.611c-.259.058-.561.107-.906.151-.286.039-.574.06-.863.064-.604 0-1.051-.036-1.338-.108-.288-.071-.503-.179-.647-.323a1.784 1.784 0 0 1-.366-.561 4.722 4.722 0 0 0-.496-.82 2.456 2.456 0 0 0-.713-.626c-.273-.157-.539-.272-.798-.345a5.167 5.167 0 0 0-1.122-.194l-1.855-.303-1.554.432-.518.69c-.145.029-.346.166-.604.41-.269.256-.522.53-.755.82-.24.295-.449.613-.626.949-.173.331-.259.598-.259.799l-.216 3.106.216 1.209v2.244c0 .058.021.223.064.496s.093.481.151.626l-.303 3.884.303 1.467c0 .202-.051.403-.151.604-.102.201-.151.46-.151.776l.303 1.468-.303 1.597v.129c0 .059.028.087.087.087.028.173.122.417.28.733.158.317.33.647.518.992.188.346.359.669.519.972.157.302.266.525.323.669 0 .028.028.086.086.172.058.087.13.13.216.13.259.145.511.331.756.561.244.231.539.403.885.519.2.086.459.166.776.237.316.072.654.15 1.014.237.36.086.72.188 1.079.302.359.115.697.259 1.015.432.172.23.338.504.496.82.157.316.237.662.237 1.035 0 .317-.051.547-.151.69a1.897 1.897 0 0 1-.453.432c-.172.115-.46.173-.863.173l-1.381.13c-.436.054-.875.083-1.315.086h-.972c-.23 0-.481-.036-.755-.107a3.477 3.477 0 0 0-.885-.108c-.806 0-1.568.108-2.287.323a7.63 7.63 0 0 1-2.201.324l-1.941-.647-2.763.647h-.733l-.604-.432a4.477 4.477 0 0 1-.475-.064 24.966 24.966 0 0 0-1.122-.151c-.115 0-.23-.058-.345-.173l-.41-.129c-.188-.058-.482-.188-.885-.389-.23-.316-.345-.618-.345-.906v-.822h-.002zm36.94-13.939l-.259-4.315.259-4.488v-1.295c.028-.144.072-.316.13-.518s.086-.374.086-.518c0-.835-.129-1.69-.388-2.568a22.56 22.56 0 0 1-.604-2.567c-.288-.201-.698-.346-1.229-.432a18.397 18.397 0 0 1-1.575-.324 4.3 4.3 0 0 1-1.359-.582c-.389-.259-.583-.661-.583-1.208 0-.604.201-1.058.604-1.359.443-.325.93-.586 1.445-.777.562-.216 1.137-.41 1.727-.582.589-.173 1.071-.432 1.445-.777.374-.316.791-.704 1.252-1.165.46-.46.791-.82.992-1.079.23-.459.539-1.035.928-1.726s.812-1.359 1.273-2.007c.429-.611.92-1.175 1.467-1.683.519-.475 1.036-.712 1.554-.712.346 0 .626.094.842.281.216.188.389.417.518.69.13.273.223.568.28.885.058.317.101.619.13.906v5.005l.216.303h2.028c.719 0 1.381-.05 1.985-.151.572-.094 1.14-.21 1.704-.345.532-.13 1.05-.244 1.554-.346a8.211 8.211 0 0 1 1.618-.151c.806 0 1.481.303 2.028.906.546.604.82 1.324.82 2.158 0 .662-.108 1.208-.324 1.64s-.525.777-.928 1.036a3.926 3.926 0 0 1-1.424.539 9.917 9.917 0 0 1-1.812.151l-2.849-.216-2.157.216-2.071-.216c-.403 0-.771.18-1.101.539-.331.36-.496.698-.496 1.015l.388 3.236c0 .403-.058.792-.172 1.165-.115.374-.245.756-.389 1.144-.145.391-.275.786-.389 1.187-.115.403-.173.82-.173 1.252v.776l.389 5.007c-.086.172-.137.345-.151.518s-.021.389-.021.647c0 .201.028.388.087.561.057.173.086.331.086.475.157 1.506.172 3.023.043 4.531a23.68 23.68 0 0 1-.259 1.985c.028.029.087.108.173.237.086.13.18.274.28.432.101.158.194.317.28.475.087.158.158.252.216.28.23.346.489.604.777.777.287.173.582.323.885.453.302.129.618.267.949.41.33.144.654.359.971.647h1.64c.662 0 1.295-.072 1.899-.216.586-.139 1.168-.29 1.748-.453.561-.158 1.106-.31 1.64-.453a6.295 6.295 0 0 1 1.661-.216c.346 0 .604.172.777.518.172.345.259.676.259.992 0 .173-.008.31-.021.41a.69.69 0 0 1-.108.28c-.058.087-.137.188-.237.303s-.223.273-.367.475l-.604.863c-.087.058-.224.201-.41.432-.188.23-.396.481-.626.755s-.46.532-.69.776c-.23.245-.403.425-.518.54-.288.316-.72.619-1.295.906a14.741 14.741 0 0 1-3.646 1.251c-.59.115-1.058.173-1.402.173l-5.524-1.122a11.335 11.335 0 0 1-1.64-.647 12.421 12.421 0 0 1-1.748-1.014c-.561-.389-1.05-.827-1.467-1.316s-.684-1.021-.799-1.597v-2.978a44.556 44.556 0 0 0-.496-2.784 13.002 13.002 0 0 1-.28-2.74l.558-3.496z"/></g></svg>